# xmcd CD database file
#
# Track frame offsets:
#	150
#	18813
#	35427
#	51368
#	73895
#	91734
#	110324
#	128603
#	144944
#	161629
#	181601
#	195171
#
# Disc length: 2936 seconds
#
# Revision: 1
# Processed by: cddbd v1.5.2PL0 Copyright (c) Steve Scherf et al.
# Submitted via: CDex 1.81
#
DISCID=8e0b760c
DTITLE=Cool Note Quartet - Jazzy Christmas
DYEAR=2005
DGENRE=Jazz
TTITLE0=Angels We Have Heard On High
TTITLE1=Away In A Manger
TTITLE2=Deck The Halls
TTITLE3=God Rest Ye Merry Gentlemen
TTITLE4=O Christmas Tree
TTITLE5=Hark The Herald Angels Sing
TTITLE6=The Holly And The Ivy
TTITLE7=It Came Upon A Midnight Clear
TTITLE8=O Come All Ye faithful
TTITLE9=The First Noel
TTITLE10=Joy To The World
TTITLE11=Oh Holy Night
EXTD=YEAR: 2005
EXTT0=
EXTT1=
EXTT2=
EXTT3=
EXTT4=
EXTT5=
EXTT6=
EXTT7=
EXTT8=
EXTT9=
EXTT10=
EXTT11=
PLAYORDER=
